<svg version="1" xmlns="http://www.w3.org/2000/svg" width="682.667" height="682.667" viewBox="0 0 512.000000 512.000000"><path d="M138.1 29c-6.2 3.3-15.6 8.8-20.9 12.3l-9.7 6.2 25 .5c17.3.3 25.7.9 27.2 1.7 6.2 3.6 8.2 11.6 4.1 16.8-4.2 5.4-5.4 5.5-47.7 5.5h-39L68 82.2c-5 5.7-9.6 11.1-10.1 12-.9 1.7.4 1.8 22.5 1.8 13 0 25.7.5 28.5 1.1 13.1 2.8 15.1 17.5 3.1 22.3-3.4 1.4-9.1 1.6-38.8 1.6H38.5l-5.7 10.2c-8.5 15.3-9.1 13.8 5.6 13.8 6.9 0 12.6.1 12.6.3 0 .2-2 4.3-4.4 9.2-6.2 12.8-10.9 25.2-14.7 38.7L28.6 205H5.2l-.8 3.2c-1.3 6-3.1 20.8-2.6 21.3.3.3 5.5.5 11.7.5h11.1l-.9 9.7c-1.8 21 .8 49.9 6.8 73.5l3.2 12.8H21.8c-8.8 0-11.8.3-11.7 1.2 0 .7 1.7 6 3.7 11.8l3.7 10.5 29.5.5c25.7.4 29.9.7 32.7 2.3 6.2 3.3 8.4 9.3 5.5 14.6-3.4 6.3-5.9 6.9-32 7.7-20.8.6-23.2.9-22.7 2.3.3.9 3.3 6.2 6.7 11.8l6.2 10.3h38.7c25 0 39.8.4 41.6 1.1 4 1.5 8.1 5.7 8.8 9 .9 4.1-1.9 9.2-6.4 11.7-3.7 2.1-5 2.2-33.5 2.2-16.3 0-29.6.3-29.6.8 0 .4 5.3 6 11.8 12.5L86.5 448h37.8l8 5.1c25.7 16.5 58.5 28.5 91.7 33.5 16.1 2.5 48.2 2.5 64.5 0 85.8-12.9 155.7-69.4 186-150.1 9.5-25.4 13.9-51 13.9-80.5 0-23.3-1.6-36.5-6.9-57.6-21.1-83-86.7-148.1-169.7-168.3-25.8-6.3-27.3-6.4-97.8-6.8l-64.5-.4-11.4 6.1zM277 164.5c48.5 11.7 79.9 58.6 71.5 106.6-6.2 35.7-30.4 63.6-64.4 74.3-27.2 8.6-56.8 4.3-80.6-11.7-12.4-8.4-25-22.7-31.8-36.2-7.3-14.6-10.8-35-8.9-51.4 5-42.3 35.2-74.6 77.2-82.6 9.2-1.8 27.7-1.3 37 1z"/><path d="M245.1 224.1c-5.3 1.7-7.6 3.2-12.7 8.3-5.4 5.4-6.5 7.2-8.4 13.5-4 13-1.2 24.1 8.4 33.7 5 4.9 7.3 6.4 12.9 8.2 8.4 2.7 12.7 2.8 21.3.1 5.7-1.8 7.7-3.1 13-8.3 5.2-5.3 6.5-7.3 8.3-13 2.6-8.6 2.6-12.6 0-21.2-1.8-5.7-3.1-7.7-8.3-13-5.3-5.2-7.3-6.5-13-8.3-8.4-2.6-13.2-2.6-21.5 0z"/></svg>